<svg xmlns="http://www.w3.org/2000/svg" viewBox="0 0 920 560" role="img" aria-labelledby="title desc">
  <title id="title">Recovery Hub explore wireframe</title>
  <desc id="desc">Explore page wireframe showing filters and discovery results.</desc>
  <rect width="920" height="560" fill="#ffffff"/>
  <rect x="1" y="1" width="918" height="558" rx="8" fill="#ffffff" stroke="#d1d5db"/>
  <rect x="0" y="0" width="920" height="56" fill="#ffffff" stroke="#d1d5db"/>
  <text x="28" y="35" font-family="Inter, Arial, sans-serif" font-size="15" font-weight="700" fill="#111827">Recovery Hub</text>
  <text x="146" y="35" font-family="Inter, Arial, sans-serif" font-size="13" fill="#374151">Community</text>
  <rect x="522" y="18" width="68" height="22" rx="11" fill="#1f2937"/>
  <text x="540" y="33" font-family="Inter, Arial, sans-serif" font-size="10" fill="#ffffff">Explore</text>
  <text x="28" y="96" font-family="Inter, Arial, sans-serif" font-size="24" font-weight="700" fill="#111827">Filter the community by recovery context</text>
  <text x="28" y="122" font-family="Inter, Arial, sans-serif" font-size="13" fill="#6b7280">Explore becomes the main discovery space, not the first task on Home.</text>
  <rect x="28" y="150" width="210" height="360" rx="6" fill="#f9fafb" stroke="#d1d5db"/>
  <text x="44" y="178" font-family="Inter, Arial, sans-serif" font-size="15" font-weight="700" fill="#111827">Filter community</text>
  <rect x="44" y="208" width="168" height="30" rx="4" fill="#ffffff" stroke="#d1d5db"/>
  <text x="44" y="274" font-family="Inter, Arial, sans-serif" font-size="13" font-weight="700" fill="#111827">Recovery stage</text>
  <rect x="44" y="294" width="12" height="12" rx="2" fill="#1f2937"/>
  <text x="70" y="306" font-family="Inter, Arial, sans-serif" font-size="12" fill="#374151">Stage 2</text>
  <text x="44" y="354" font-family="Inter, Arial, sans-serif" font-size="13" font-weight="700" fill="#111827">Injury area</text>
  <rect x="44" y="374" width="12" height="12" rx="2" fill="#1f2937"/>
  <text x="70" y="386" font-family="Inter, Arial, sans-serif" font-size="12" fill="#374151">Knee</text>
  <rect x="44" y="456" width="168" height="34" rx="4" fill="#1f2937"/>
  <text x="94" y="477" font-family="Inter, Arial, sans-serif" font-size="12" font-weight="700" fill="#ffffff">Apply filters</text>
  <rect x="264" y="150" width="628" height="360" rx="6" fill="#ffffff" stroke="#d1d5db"/>
  <text x="286" y="190" font-family="Inter, Arial, sans-serif" font-size="24" font-weight="700" fill="#111827">Explore community content</text>
  <text x="286" y="218" font-family="Inter, Arial, sans-serif" font-size="13" fill="#6b7280">Sorted by relevance first, not popularity alone.</text>
  <rect x="286" y="246" width="92" height="24" rx="12" fill="#1f2937"/>
  <text x="307" y="262" font-family="Inter, Arial, sans-serif" font-size="11" fill="#ffffff">Most relevant</text>
  <rect x="392" y="246" width="76" height="24" rx="12" fill="#ffffff" stroke="#d1d5db"/>
  <text x="416" y="262" font-family="Inter, Arial, sans-serif" font-size="11" fill="#374151">Recent</text>
  <g fill="#ffffff" stroke="#d1d5db">
    <rect x="286" y="296" width="270" height="86" rx="6"/>
    <rect x="584" y="296" width="270" height="86" rx="6"/>
    <rect x="286" y="404" width="270" height="86" rx="6"/>
    <rect x="584" y="404" width="270" height="86" rx="6"/>
  </g>
  <text x="306" y="326" font-family="Inter, Arial, sans-serif" font-size="14" font-weight="700" fill="#111827">Question: stairs after knee strain</text>
  <text x="306" y="352" font-family="Inter, Arial, sans-serif" font-size="12" fill="#374151">Stage 2 / pain 2-4 / 18 replies</text>
  <text x="604" y="326" font-family="Inter, Arial, sans-serif" font-size="14" font-weight="700" fill="#111827">Log: confidence returning slowly</text>
  <text x="604" y="352" font-family="Inter, Arial, sans-serif" font-size="12" fill="#374151">Stage 2 / low intensity / similar goal</text>
  <text x="306" y="434" font-family="Inter, Arial, sans-serif" font-size="14" font-weight="700" fill="#111827">Movement idea: step-down control</text>
  <text x="306" y="460" font-family="Inter, Arial, sans-serif" font-size="12" fill="#374151">Tagged low intensity</text>
  <text x="604" y="434" font-family="Inter, Arial, sans-serif" font-size="14" font-weight="700" fill="#111827">Thread: what counts as progress?</text>
  <text x="604" y="460" font-family="Inter, Arial, sans-serif" font-size="12" fill="#374151">Useful for avoiding comparison pressure</text>
</svg>
